<svg width="338" height="560" viewBox="0 0 338 560" fill="none" xmlns="http://www.w3.org/2000/svg">
<g filter="url(#filter0_b_4770_406055)">
<g clip-path="url(#clip0_4770_406055)">
<rect x="337.519" width="560" height="336.709" rx="35.443" transform="rotate(90 337.519 0)" fill="url(#paint0_linear_4770_406055)"/>
<g filter="url(#filter1_f_4770_406055)">
<path opacity="0.3" d="M224.101 -28.3544C302.399 -28.3544 365.873 35.1191 365.873 113.418V113.418L224.101 113.418L224.101 -28.3544V-28.3544Z" fill="#EE46BC"/>
<path opacity="0.3" d="M365.873 113.418V113.418C365.873 191.716 302.399 255.19 224.101 255.19V255.19L224.101 113.418L365.873 113.418Z" fill="#EF6820"/>
<path opacity="0.3" d="M224.101 -28.3544L224.101 113.418L82.3284 113.418V113.418C82.3284 35.1191 145.802 -28.3544 224.101 -28.3544V-28.3544Z" fill="#2E90FA"/>
<path opacity="0.3" d="M224.101 113.418L224.101 255.19V255.19C145.802 255.19 82.3284 191.716 82.3284 113.418V113.418L224.101 113.418Z" fill="#12B76A"/>
</g>
<rect x="85.873" y="451.899" width="80.3376" height="56.7089" rx="7.08861" transform="rotate(90 85.873 451.899)" fill="white" fill-opacity="0.1"/>
<path opacity="0.5" fill-rule="evenodd" clip-rule="evenodd" d="M46.1066 492.49C43.7484 489.693 42.3249 486.063 42.3249 482.098C42.3249 473.249 49.4127 466.076 58.1561 466.076C66.8994 466.076 73.9873 473.249 73.9873 482.098C73.9873 486.064 72.5636 489.693 70.2053 492.491C72.5635 495.288 73.9871 498.917 73.9871 502.883C73.9871 511.732 66.8992 518.905 58.1559 518.905C49.4125 518.905 42.3247 511.732 42.3247 502.883C42.3247 498.917 43.7483 495.288 46.1066 492.49Z" fill="white"/>
<path opacity="0.5" fill-rule="evenodd" clip-rule="evenodd" d="M42.3249 502.883C42.3249 511.732 49.4127 518.905 58.1561 518.905C66.8994 518.905 73.9873 511.732 73.9873 502.883C73.9873 498.917 72.5637 495.288 70.2054 492.49C67.3017 495.935 62.981 498.12 58.1561 498.12C53.3312 498.12 49.0105 495.935 46.1067 492.49C43.7485 495.288 42.3249 498.917 42.3249 502.883Z" fill="white"/>
<path fill-rule="evenodd" clip-rule="evenodd" d="M46.1065 492.491C49.0103 489.046 53.331 486.861 58.1558 486.861C62.9806 486.861 67.3013 489.046 70.2051 492.491C67.3013 495.935 62.9806 498.12 58.1558 498.12C53.331 498.12 49.0103 495.935 46.1065 492.491Z" fill="white"/>
<path d="M38.1514 33.8977L55.3058 33.8977L52.9666 30.0557L56.2699 30.0557L58.5666 33.8977L58.5666 36.9175L38.1514 36.9175L38.1514 33.8977ZM38.1655 45.9873L40.8025 46.0015L48.7701 54.8906C49.4033 55.6089 50.0082 56.0957 50.5848 56.3509C51.1613 56.6155 51.7379 56.7478 52.3144 56.7478C53.0422 56.7478 53.6943 56.5872 54.2709 56.2658C54.8569 55.9445 55.32 55.5003 55.6602 54.9332C56.0005 54.3661 56.1706 53.7139 56.1706 52.9767C56.1706 52.2206 55.991 51.5448 55.6319 50.9494C55.2822 50.3634 54.8143 49.905 54.2283 49.5742C53.6423 49.2434 53.0091 49.0827 52.3286 49.0922L52.3286 46.0582C53.6518 46.0582 54.8096 46.356 55.802 46.9514C56.8039 47.5563 57.5836 48.3833 58.1412 49.4324C58.7083 50.4815 58.9919 51.6819 58.9919 53.0334C58.9919 54.3188 58.6989 55.4719 58.1129 56.4927C57.5363 57.5134 56.7424 58.3168 55.7311 58.9028C54.7198 59.4982 53.5667 59.796 52.2719 59.796C51.3362 59.796 50.5423 59.6731 49.8901 59.4273C49.2379 59.1816 48.6331 58.813 48.0754 58.3215C47.5178 57.83 46.9129 57.2157 46.2607 56.4785L40.1362 49.6167L40.9868 49.2906L40.9868 59.796L38.1655 59.796L38.1655 45.9873ZM37.7686 73.1626C37.7686 72.1513 37.9576 71.2014 38.3357 70.313C38.7232 69.4246 39.2714 68.6543 39.9802 68.0021C40.6891 67.3594 41.5255 66.8916 42.4896 66.5986L43.2835 69.4624C42.4045 69.7365 41.7287 70.2138 41.2562 70.8943C40.7931 71.5748 40.5662 72.3309 40.5757 73.1626C40.5851 73.9093 40.76 74.5662 41.1002 75.1333C41.4405 75.7004 41.8989 76.1446 42.4754 76.4659C43.0614 76.7873 43.7325 76.9479 44.4886 76.9479C45.6228 76.9479 46.5585 76.5935 47.2957 75.8847C48.0329 75.1852 48.4015 74.2685 48.4015 73.1343C48.4015 72.8129 48.3542 72.4821 48.2597 72.1419C48.1652 71.8111 48.0423 71.4992 47.8911 71.2062L50.2304 69.8168L56.5959 77.0188L55.7453 77.3307L55.7453 67.4067L58.5666 67.4067L58.5666 79.6841L55.7453 79.6841L49.9893 73.7014L50.9534 73.673C50.9534 74.9584 50.6651 76.0737 50.0886 77.0188C49.5215 77.964 48.7465 78.6917 47.7635 79.2021C46.79 79.722 45.6984 79.9819 44.4886 79.9819C43.1843 79.9819 42.0265 79.6747 41.0152 79.0604C40.0039 78.4555 39.2099 77.6379 38.6334 76.6077C38.0569 75.5869 37.7686 74.4386 37.7686 73.1626ZM38.1514 96.5767L41.7098 96.5767L41.7098 87.3616L44.5169 87.3616L58.5666 93.9965L58.5666 97.3848L44.5169 90.7499L44.5169 96.5767L50.046 96.5767L50.046 99.5823L44.5169 99.5823L44.5169 101.61L41.7098 101.61L41.7098 99.5823L38.1514 99.5823L38.1514 96.5767ZM38.1514 122.755L55.3058 122.755L52.9666 118.913L56.2698 118.913L58.5666 122.755L58.5666 125.774L38.1514 125.774L38.1514 122.755ZM38.1655 134.844L40.8025 134.858L48.7701 143.747C49.4033 144.466 50.0082 144.953 50.5848 145.208C51.1613 145.472 51.7379 145.605 52.3144 145.605C53.0422 145.605 53.6943 145.444 54.2709 145.123C54.8568 144.801 55.32 144.357 55.6602 143.79C56.0005 143.223 56.1706 142.571 56.1706 141.834C56.1706 141.077 55.991 140.402 55.6319 139.806C55.2822 139.22 54.8143 138.762 54.2283 138.431C53.6423 138.1 53.0091 137.94 52.3286 137.949L52.3286 134.915C53.6518 134.915 54.8096 135.213 55.802 135.808C56.8039 136.413 57.5836 137.24 58.1412 138.289C58.7083 139.338 58.9919 140.539 58.9919 141.89C58.9919 143.176 58.6989 144.329 58.1129 145.349C57.5363 146.37 56.7424 147.174 55.7311 147.76C54.7198 148.355 53.5667 148.653 52.2719 148.653C51.3362 148.653 50.5422 148.53 49.8901 148.284C49.2379 148.038 48.6331 147.67 48.0754 147.178C47.5178 146.687 46.9129 146.073 46.2607 145.335L40.1362 138.474L40.9868 138.147L40.9868 148.653L38.1655 148.653L38.1655 134.844ZM37.7686 162.019C37.7686 161.008 37.9576 160.058 38.3357 159.17C38.7232 158.281 39.2714 157.511 39.9802 156.859C40.6891 156.216 41.5255 155.748 42.4896 155.455L43.2835 158.319C42.4045 158.593 41.7287 159.071 41.2562 159.751C40.793 160.432 40.5662 161.188 40.5757 162.019C40.5851 162.766 40.76 163.423 41.1002 163.99C41.4405 164.557 41.8989 165.001 42.4754 165.323C43.0614 165.644 43.7325 165.805 44.4886 165.805C45.6228 165.805 46.5585 165.45 47.2957 164.741C48.0329 164.042 48.4015 163.125 48.4015 161.991C48.4015 161.67 48.3542 161.339 48.2597 160.999C48.1652 160.668 48.0423 160.356 47.8911 160.063L50.2303 158.674L56.5959 165.876L55.7453 166.188L55.7453 156.263L58.5666 156.263L58.5666 168.541L55.7453 168.541L49.9893 162.558L50.9534 162.53C50.9534 163.815 50.6651 164.93 50.0886 165.876C49.5215 166.821 48.7465 167.549 47.7635 168.059C46.79 168.579 45.6984 168.839 44.4886 168.839C43.1843 168.839 42.0265 168.532 41.0152 167.917C40.0039 167.312 39.2099 166.495 38.6334 165.464C38.0568 164.444 37.7686 163.295 37.7686 162.019ZM38.1514 185.434L41.7098 185.434L41.7098 176.218L44.5169 176.218L58.5666 182.853L58.5666 186.242L44.5169 179.607L44.5169 185.434L50.046 185.434L50.046 188.439L44.5169 188.439L44.5169 190.466L41.7098 190.466L41.7098 188.439L38.1514 188.439L38.1514 185.434ZM38.1514 211.611L55.3058 211.611L52.9666 207.769L56.2698 207.769L58.5666 211.611L58.5666 214.631L38.1514 214.631L38.1514 211.611ZM38.1655 223.701L40.8025 223.715L48.7701 232.604C49.4033 233.323 50.0082 233.809 50.5848 234.064C51.1613 234.329 51.7379 234.461 52.3144 234.461C53.0422 234.461 53.6943 234.301 54.2709 233.979C54.8568 233.658 55.32 233.214 55.6602 232.647C56.0005 232.08 56.1706 231.428 56.1706 230.69C56.1706 229.934 55.991 229.258 55.6319 228.663C55.2822 228.077 54.8143 227.619 54.2283 227.288C53.6423 226.957 53.0091 226.796 52.3286 226.806L52.3286 223.772C53.6518 223.772 54.8096 224.07 55.802 224.665C56.8038 225.27 57.5836 226.097 58.1412 227.146C58.7083 228.195 58.9919 229.395 58.9919 230.747C58.9919 232.032 58.6989 233.186 58.1129 234.206C57.5363 235.227 56.7424 236.03 55.7311 236.616C54.7198 237.212 53.5667 237.51 52.2719 237.51C51.3362 237.51 50.5422 237.387 49.8901 237.141C49.2379 236.895 48.633 236.527 48.0754 236.035C47.5178 235.544 46.9129 234.929 46.2607 234.192L40.1362 227.33L40.9868 227.004L40.9868 237.51L38.1655 237.51L38.1655 223.701ZM37.7686 250.876C37.7686 249.865 37.9576 248.915 38.3357 248.027C38.7232 247.138 39.2714 246.368 39.9802 245.716C40.6891 245.073 41.5255 244.605 42.4896 244.312L43.2835 247.176C42.4045 247.45 41.7287 247.927 41.2562 248.608C40.793 249.288 40.5662 250.045 40.5757 250.876C40.5851 251.623 40.76 252.28 41.1002 252.847C41.4405 253.414 41.8989 253.858 42.4754 254.18C43.0614 254.501 43.7325 254.662 44.4886 254.662C45.6228 254.662 46.5584 254.307 47.2957 253.598C48.0329 252.899 48.4015 251.982 48.4015 250.848C48.4015 250.527 48.3542 250.196 48.2597 249.855C48.1652 249.525 48.0423 249.213 47.8911 248.92L50.2303 247.53L56.5959 254.732L55.7453 255.044L55.7453 245.12L58.5665 245.12L58.5665 257.398L55.7453 257.398L49.9893 251.415L50.9534 251.387C50.9534 252.672 50.6651 253.787 50.0886 254.732C49.5215 255.678 48.7465 256.405 47.7635 256.916C46.79 257.436 45.6984 257.695 44.4886 257.695C43.1843 257.695 42.0265 257.388 41.0152 256.774C40.0038 256.169 39.2099 255.352 38.6334 254.321C38.0568 253.301 37.7686 252.152 37.7686 250.876ZM38.1514 274.29L41.7098 274.29L41.7098 265.075L44.5169 265.075L58.5665 271.71L58.5665 275.098L44.5169 268.464L44.5169 274.29L50.046 274.29L50.046 277.296L44.5169 277.296L44.5169 279.323L41.7098 279.323L41.7098 277.296L38.1514 277.296L38.1514 274.29ZM38.1514 300.468L55.3058 300.468L52.9665 296.626L56.2698 296.626L58.5665 300.468L58.5665 303.488L38.1514 303.488L38.1514 300.468ZM38.1655 312.558L40.8025 312.572L48.7701 321.461C49.4033 322.179 50.0082 322.666 50.5848 322.921C51.1613 323.186 51.7379 323.318 52.3144 323.318C53.0422 323.318 53.6943 323.158 54.2708 322.836C54.8568 322.515 55.32 322.071 55.6602 321.504C56.0005 320.937 56.1706 320.284 56.1706 319.547C56.1706 318.791 55.991 318.115 55.6319 317.52C55.2822 316.934 54.8143 316.475 54.2283 316.145C53.6423 315.814 53.0091 315.653 52.3286 315.663L52.3286 312.629C53.6518 312.629 54.8096 312.926 55.802 313.522C56.8038 314.127 57.5836 314.954 58.1412 316.003C58.7083 317.052 58.9919 318.252 58.9919 319.604C58.9919 320.889 58.6989 322.042 58.1129 323.063C57.5363 324.084 56.7424 324.887 55.7311 325.473C54.7198 326.069 53.5667 326.366 52.2719 326.366C51.3362 326.366 50.5422 326.244 49.8901 325.998C49.2379 325.752 48.633 325.383 48.0754 324.892C47.5178 324.4 46.9129 323.786 46.2607 323.049L40.1362 316.187L40.9868 315.861L40.9868 326.366L38.1655 326.366L38.1655 312.558ZM37.7686 339.733C37.7686 338.722 37.9576 337.772 38.3357 336.883C38.7232 335.995 39.2714 335.225 39.9802 334.573C40.6891 333.93 41.5255 333.462 42.4896 333.169L43.2835 336.033C42.4045 336.307 41.7287 336.784 41.2562 337.465C40.793 338.145 40.5662 338.901 40.5757 339.733C40.5851 340.48 40.76 341.137 41.1002 341.704C41.4405 342.271 41.8989 342.715 42.4754 343.036C43.0614 343.358 43.7325 343.518 44.4886 343.518C45.6227 343.518 46.5584 343.164 47.2957 342.455C48.0329 341.756 48.4015 340.839 48.4015 339.705C48.4015 339.383 48.3542 339.053 48.2597 338.712C48.1652 338.381 48.0423 338.07 47.8911 337.777L50.2303 336.387L56.5959 343.589L55.7453 343.901L55.7453 333.977L58.5665 333.977L58.5665 346.255L55.7453 346.255L49.9893 340.272L50.9534 340.243C50.9534 341.529 50.6651 342.644 50.0886 343.589C49.5215 344.534 48.7465 345.262 47.7635 345.773C46.79 346.292 45.6984 346.552 44.4886 346.552C43.1843 346.552 42.0265 346.245 41.0152 345.631C40.0038 345.026 39.2099 344.208 38.6334 343.178C38.0568 342.157 37.7686 341.009 37.7686 339.733ZM38.1514 363.147L41.7098 363.147L41.7098 353.932L44.5169 353.932L58.5665 360.567L58.5665 363.955L44.5169 357.32L44.5169 363.147L50.046 363.147L50.046 366.153L44.5169 366.153L44.5169 368.18L41.7098 368.18L41.7098 366.153L38.1514 366.153L38.1514 363.147Z" fill="white"/>
<path d="M87.6826 30.0557L102.994 30.0557L102.994 32.278L89.7773 32.278L89.7773 39.2106L87.6826 39.2106L87.6826 30.0557ZM87.6826 41.0159L102.994 45.9921L102.994 49.1926L87.6826 54.1688L87.6826 51.8615L101.654 47.2787L101.654 47.8529L87.6826 43.3232L87.6826 41.0159ZM91.1383 43.5997L93.2224 43.5997L93.2224 51.5957L91.1383 51.5957L91.1383 43.5997ZM87.6826 57.1397L102.994 57.1397L102.994 59.3939L91.6168 66.9326L102.994 66.9326L102.994 69.1868L87.6826 69.1868L87.6826 66.9326L99.0705 59.3939L87.6826 59.3939L87.6826 57.1397ZM87.6826 72.1545L102.994 77.1308L102.994 80.3313L87.6826 85.3075L87.6826 83.0001L101.654 78.4173L101.654 78.9915L87.6826 74.4619L87.6826 72.1545ZM91.1383 74.7383L93.2224 74.7383L93.2224 82.7343L91.1383 82.7343L91.1383 74.7383ZM87.3636 99.1494C87.3636 98.0506 87.5515 97.0582 87.9272 96.1721C88.31 95.2932 88.8522 94.5666 89.554 93.9924C90.2629 93.4253 91.1029 93.0567 92.074 92.8866L92.4249 95.2045C91.4892 95.4385 90.7591 95.9276 90.2345 96.6719C89.717 97.4162 89.4583 98.2845 89.4583 99.2769C89.4583 99.8937 89.554 100.461 89.7454 100.978C89.9439 101.496 90.2239 101.91 90.5854 102.222C90.954 102.541 91.3935 102.701 91.9039 102.701C92.1803 102.701 92.4249 102.651 92.6376 102.552C92.8502 102.46 93.0345 102.329 93.1905 102.158C93.3535 101.995 93.4917 101.793 93.6051 101.552C93.7257 101.318 93.8284 101.06 93.9135 100.776L95.0725 96.8526C95.1859 96.4699 95.3312 96.08 95.5084 95.683C95.6927 95.2861 95.9302 94.921 96.2208 94.5878C96.5186 94.2618 96.8836 93.9959 97.316 93.7904C97.7555 93.5848 98.2872 93.482 98.911 93.482C99.8538 93.482 100.651 93.723 101.303 94.2051C101.963 94.6942 102.459 95.3534 102.792 96.1828C103.132 97.0121 103.302 97.9407 103.302 98.9686C103.288 100.004 103.104 100.929 102.749 101.744C102.395 102.566 101.885 103.247 101.218 103.785C100.559 104.331 99.7581 104.707 98.8153 104.912L98.4112 102.531C98.9854 102.424 99.4781 102.197 99.8892 101.85C100.307 101.503 100.626 101.077 100.846 100.574C101.073 100.071 101.19 99.5251 101.197 98.9367C101.211 98.3696 101.126 97.8486 100.942 97.3737C100.758 96.9058 100.499 96.5301 100.166 96.2466C99.8325 95.9701 99.4497 95.8319 99.0173 95.8319C98.592 95.8319 98.2482 95.9559 97.9859 96.204C97.7236 96.4521 97.5145 96.7569 97.3586 97.1185C97.2097 97.4871 97.0857 97.8521 96.9864 98.2137L96.1889 101.042C96.0897 101.396 95.955 101.797 95.7849 102.244C95.6219 102.697 95.3915 103.133 95.0938 103.551C94.796 103.977 94.3991 104.328 93.9029 104.604C93.4138 104.88 92.797 105.019 92.0527 105.019C91.2801 105.019 90.5996 104.863 90.0112 104.551C89.43 104.239 88.9408 103.81 88.5439 103.264C88.154 102.726 87.8598 102.102 87.6613 101.393C87.4629 100.684 87.3636 99.9362 87.3636 99.1494ZM87.6826 112.165L100.899 112.165L100.899 107.072L102.994 107.072L102.994 119.481L100.899 119.481L100.899 114.387L87.6826 114.387L87.6826 112.165ZM87.6826 122.246L102.994 122.246L102.994 132.028L100.899 132.028L100.899 124.468L96.6036 124.468L96.6036 130.752L94.5089 130.752L94.5089 124.468L89.7773 124.468L89.7773 132.028L87.6826 132.028L87.6826 122.246ZM87.6826 135.857L102.994 135.857L102.994 138.08L87.6826 138.08L87.6826 135.857ZM87.6826 142.336L102.994 142.336L102.994 144.59L91.6168 152.129L102.994 152.129L102.994 154.383L87.6826 154.383L87.6826 152.129L99.0705 144.59L87.6826 144.59L87.6826 142.336ZM87.6826 158.414L102.994 158.414L102.994 168.196L100.899 168.196L100.899 160.636L96.6036 160.636L96.6036 166.92L94.5089 166.92L94.5089 160.636L89.7773 160.636L89.7773 168.196L87.6826 168.196L87.6826 158.414ZM87.6826 171.813L102.994 171.813L102.994 178.002C102.994 178.15 102.987 178.335 102.973 178.554C102.966 178.774 102.944 178.983 102.909 179.182C102.774 180.032 102.484 180.741 102.037 181.308C101.59 181.883 101.027 182.311 100.346 182.595C99.6659 182.878 98.9145 183.02 98.0922 183.02C96.873 183.02 95.8203 182.708 94.9343 182.085C94.0553 181.461 93.5059 180.525 93.2862 179.277L93.1798 178.374L93.1798 174.035L87.6826 174.035L87.6826 171.813ZM87.6826 180.766L93.9135 177.746L94.4877 179.99L87.6826 183.307L87.6826 180.766ZM95.2851 174.035L95.2851 177.916C95.2851 178.058 95.2922 178.214 95.3064 178.384C95.3206 178.562 95.3454 178.728 95.3808 178.884C95.4872 179.338 95.6821 179.703 95.9656 179.979C96.2563 180.256 96.5894 180.454 96.9651 180.575C97.3408 180.695 97.7165 180.755 98.0922 180.755C98.4679 180.755 98.8401 180.695 99.2087 180.575C99.5844 180.454 99.914 180.256 100.198 179.979C100.488 179.703 100.687 179.338 100.793 178.884C100.836 178.728 100.864 178.562 100.878 178.384C100.892 178.214 100.899 178.058 100.899 177.916L100.899 174.035L95.2851 174.035Z" fill="white"/>
<path d="M87.3646 311.763C87.3646 310.721 87.5914 309.8 88.0451 308.999C88.5059 308.198 89.1368 307.567 89.9378 307.106C90.7388 306.652 91.6603 306.426 92.7023 306.426L97.9763 306.426C99.0183 306.426 99.9398 306.652 100.741 307.106C101.542 307.567 102.169 308.198 102.623 308.999C103.084 309.8 103.314 310.721 103.314 311.763C103.314 312.805 103.084 313.727 102.623 314.528C102.169 315.329 101.542 315.956 100.741 316.41C99.9398 316.871 99.0183 317.101 97.9763 317.101L92.7023 317.101C91.6603 317.101 90.7388 316.871 89.9378 316.41C89.1368 315.956 88.5059 315.329 88.0451 314.528C87.5914 313.727 87.3646 312.805 87.3646 311.763ZM89.4912 311.763C89.4912 312.33 89.6259 312.844 89.8952 313.305C90.1717 313.773 90.5403 314.145 91.0011 314.422C91.4689 314.698 91.9899 314.836 92.5641 314.836L98.1357 314.836C98.7028 314.836 99.2168 314.698 99.6775 314.422C100.145 314.145 100.514 313.773 100.783 313.305C101.06 312.844 101.198 312.33 101.198 311.763C101.198 311.196 101.06 310.679 100.783 310.211C100.514 309.75 100.145 309.382 99.6775 309.105C99.2168 308.829 98.7028 308.69 98.1357 308.69L92.5641 308.69C91.9899 308.69 91.4689 308.829 91.0011 309.105C90.5403 309.382 90.1717 309.75 89.8952 310.211C89.6259 310.679 89.4912 311.196 89.4912 311.763ZM87.3646 326.396C87.3646 325.404 87.5985 324.511 88.0664 323.717C88.5413 322.923 89.1899 322.292 90.0122 321.824C90.8345 321.363 91.7702 321.133 92.8193 321.133L97.6998 321.133C98.8127 321.133 99.7909 321.363 100.634 321.824C101.478 322.292 102.134 322.937 102.602 323.759C103.069 324.589 103.303 325.542 103.303 326.62C103.303 327.428 103.151 328.186 102.846 328.895C102.541 329.604 102.088 330.217 101.485 330.735L99.9646 329.108C100.34 328.817 100.638 328.452 100.858 328.013C101.085 327.58 101.198 327.116 101.198 326.62C101.198 325.982 101.046 325.422 100.741 324.94C100.443 324.458 100.05 324.078 99.5606 323.802C99.0714 323.533 98.5469 323.398 97.9869 323.398L95.1798 323.398L95.6689 322.962C96.2431 323.401 96.6968 323.947 97.0299 324.599C97.3631 325.252 97.5297 325.95 97.5297 326.694C97.5297 327.644 97.3064 328.491 96.8598 329.235C96.4203 329.987 95.8213 330.575 95.0628 331C94.3044 331.433 93.4502 331.649 92.5003 331.649C91.5433 331.649 90.675 331.408 89.8952 330.926C89.1226 330.451 88.5059 329.813 88.0451 329.012C87.5914 328.218 87.3646 327.346 87.3646 326.396ZM89.5018 326.396C89.5018 326.949 89.6365 327.453 89.9059 327.906C90.1752 328.36 90.5368 328.721 90.9904 328.991C91.4441 329.26 91.9474 329.395 92.5003 329.395C93.0532 329.395 93.5565 329.26 94.0102 328.991C94.4638 328.728 94.8254 328.371 95.0947 327.917C95.3641 327.463 95.4988 326.96 95.4988 326.407C95.4988 325.854 95.3641 325.347 95.0947 324.886C94.8254 324.433 94.4638 324.071 94.0102 323.802C93.5565 323.533 93.0532 323.398 92.5003 323.398C91.9545 323.398 91.4547 323.533 91.0011 323.802C90.5474 324.071 90.1823 324.433 89.9059 324.886C89.6365 325.34 89.5018 325.843 89.5018 326.396ZM102.995 339.275L102.995 341.518L87.6836 337.435L87.6836 335.192L102.995 339.275ZM87.6942 344.931L89.6719 344.941L95.6476 351.608C96.1226 352.147 96.5763 352.512 97.0087 352.703C97.4411 352.902 97.8735 353.001 98.3059 353.001C98.8517 353.001 99.3408 352.881 99.7732 352.64C100.213 352.399 100.56 352.066 100.815 351.64C101.07 351.215 101.198 350.726 101.198 350.173C101.198 349.606 101.063 349.099 100.794 348.652C100.532 348.213 100.181 347.869 99.7413 347.621C99.3018 347.373 98.8269 347.252 98.3165 347.259L98.3165 344.984C99.3089 344.984 100.177 345.207 100.922 345.654C101.673 346.108 102.258 346.728 102.676 347.515C103.101 348.301 103.314 349.202 103.314 350.215C103.314 351.179 103.094 352.044 102.655 352.81C102.222 353.575 101.627 354.178 100.868 354.617C100.11 355.064 99.2451 355.287 98.274 355.287C97.5722 355.287 96.9768 355.195 96.4876 355.011C95.9985 354.827 95.5449 354.55 95.1266 354.181C94.7084 353.813 94.2547 353.352 93.7656 352.799L89.1722 347.653L89.8102 347.408L89.8102 355.287L87.6942 355.287L87.6942 344.931ZM87.6836 364.971L90.3525 364.971L90.3525 358.06L92.4578 358.06L102.995 363.036L102.995 365.577L92.4578 360.601L92.4578 364.971L96.6046 364.971L96.6046 367.226L92.4578 367.226L92.4578 368.746L90.3525 368.746L90.3525 367.226L87.6836 367.226L87.6836 364.971Z" fill="white"/>
<path d="M295.697 50.4761L295.697 54.2118L282.224 54.2118C280.747 54.2118 279.449 53.8627 278.327 53.1646C277.206 52.4732 276.33 51.4998 275.699 50.2445C275.075 48.9893 274.763 47.5226 274.763 45.8444C274.763 44.1595 275.075 42.6894 275.699 41.4341C276.33 40.1789 277.206 39.2055 278.327 38.5141C279.449 37.8227 280.747 37.477 282.224 37.477L295.697 37.477L295.697 41.2126L282.536 41.2126C281.677 41.2126 280.912 41.4006 280.241 41.7765C279.569 42.1591 279.042 42.6961 278.66 43.3875C278.284 44.0789 278.096 44.8979 278.096 45.8444C278.096 46.7909 278.284 47.6098 278.66 48.3012C279.042 48.9993 279.569 49.5364 280.241 49.9123C280.912 50.2882 281.677 50.4761 282.536 50.4761L295.697 50.4761ZM284.137 61.756L275.075 61.756L275.075 58.111L290.541 58.111L290.541 61.5949L287.913 61.5949L287.913 61.7761C288.779 62.1319 289.467 62.6991 289.977 63.4778C290.488 64.2632 290.743 65.2332 290.743 66.3877C290.743 67.4551 290.514 68.3848 290.058 69.1769C289.601 69.9757 288.94 70.5933 288.074 71.0296C287.208 71.4726 286.158 71.6908 284.923 71.6841L275.075 71.6841L275.075 68.0391L284.359 68.0391C285.393 68.0391 286.201 67.7706 286.785 67.2335C287.369 66.7032 287.662 65.9682 287.662 65.0284C287.662 64.3907 287.521 63.8235 287.239 63.3268C286.963 62.8367 286.564 62.4508 286.04 62.1688C285.517 61.8936 284.882 61.756 284.137 61.756ZM290.541 83.1124L287.722 83.1124L287.722 74.2215L290.541 74.2215L290.541 83.1124ZM294.247 76.4165L294.247 80.0615L279.727 80.0615C279.237 80.0615 278.861 80.1354 278.599 80.283C278.344 80.4374 278.17 80.6388 278.076 80.8872C277.982 81.1355 277.935 81.4108 277.935 81.7128C277.935 81.9411 277.952 82.1492 277.985 82.3371C278.019 82.5318 278.049 82.6795 278.076 82.7802L275.226 83.3944C275.159 83.1997 275.085 82.9211 275.005 82.5586C274.924 82.2029 274.877 81.7665 274.864 81.2497C274.837 80.3367 274.975 79.5144 275.277 78.7827C275.585 78.0511 276.062 77.4704 276.706 77.0408C277.351 76.6179 278.156 76.4098 279.123 76.4165L294.247 76.4165ZM275.075 86.1608L290.541 86.1608L290.541 89.8058L275.075 89.8058L275.075 86.1608ZM292.736 87.9934C292.736 87.4161 292.928 86.9194 293.31 86.5032C293.7 86.087 294.166 85.8789 294.71 85.8789C295.26 85.8789 295.727 86.087 296.109 86.5032C296.499 86.9194 296.693 87.4161 296.693 87.9934C296.693 88.5774 296.499 89.0741 296.109 89.4836C295.727 89.8998 295.26 90.1079 294.71 90.1079C294.166 90.1079 293.7 89.8998 293.31 89.4836C292.928 89.0741 292.736 88.5774 292.736 87.9934ZM290.541 101.277L287.722 101.277L287.722 92.386L290.541 92.386L290.541 101.277ZM294.247 94.5811L294.247 98.2261L279.727 98.2261C279.237 98.2261 278.861 98.2999 278.599 98.4476C278.344 98.602 278.17 98.8034 278.076 99.0517C277.982 99.3001 277.935 99.5753 277.935 99.8774C277.935 100.106 277.952 100.314 277.985 100.502C278.019 100.696 278.049 100.844 278.076 100.945L275.226 101.559C275.159 101.364 275.085 101.086 275.005 100.723C274.924 100.367 274.877 99.9311 274.864 99.4142C274.837 98.5013 274.975 97.679 275.277 96.9473C275.585 96.2156 276.062 95.635 276.706 95.2054C277.351 94.7825 278.156 94.5744 279.123 94.5811L294.247 94.5811ZM295.697 108.303L275.075 108.303L275.075 104.658L295.697 104.658L295.697 108.303ZM274.773 118.898C274.773 117.347 275.095 116.008 275.74 114.88C276.391 113.759 277.311 112.897 278.499 112.293C279.694 111.688 281.1 111.386 282.718 111.386C284.309 111.386 285.705 111.688 286.906 112.293C288.115 112.903 289.054 113.756 289.726 114.85C290.404 115.944 290.743 117.23 290.743 118.707C290.743 119.66 290.588 120.559 290.279 121.405C289.977 122.258 289.507 123.009 288.87 123.66C288.232 124.318 287.42 124.835 286.433 125.211C285.453 125.587 284.285 125.775 282.929 125.775L281.811 125.775L281.811 113.098L284.268 113.098L284.268 122.281C284.966 122.274 285.587 122.123 286.131 121.828C286.681 121.533 287.114 121.12 287.43 120.589C287.745 120.066 287.903 119.455 287.903 118.757C287.903 118.012 287.722 117.357 287.359 116.793C287.004 116.23 286.534 115.79 285.95 115.474C285.372 115.166 284.738 115.008 284.047 115.001L281.902 115.001C281.003 115.001 280.231 115.166 279.586 115.494C278.948 115.823 278.458 116.283 278.116 116.874C277.78 117.465 277.613 118.156 277.613 118.948C277.613 119.478 277.686 119.958 277.834 120.388C277.989 120.818 278.213 121.19 278.509 121.506C278.804 121.821 279.17 122.059 279.606 122.221L279.224 125.624C278.324 125.409 277.539 125 276.867 124.396C276.203 123.798 275.686 123.033 275.317 122.1C274.954 121.167 274.773 120.099 274.773 118.898ZM274.803 134.598C274.803 133.383 275.115 132.296 275.74 131.336C276.364 130.376 277.27 129.617 278.458 129.06C279.647 128.503 281.09 128.224 282.788 128.224C284.507 128.224 285.956 128.506 287.138 129.07C288.326 129.641 289.222 130.409 289.826 131.376C290.437 132.343 290.743 133.42 290.743 134.608C290.743 135.514 290.588 136.259 290.279 136.843C289.977 137.427 289.612 137.891 289.182 138.233C288.759 138.575 288.36 138.84 287.984 139.028L287.984 139.179L295.697 139.179L295.697 142.834L275.075 142.834L275.075 139.25L277.512 139.25L277.512 139.028C277.136 138.84 276.737 138.569 276.314 138.213C275.897 137.857 275.542 137.387 275.246 136.803C274.951 136.219 274.803 135.484 274.803 134.598ZM277.794 135.615C277.794 136.387 278.002 137.045 278.418 137.588C278.841 138.132 279.428 138.545 280.18 138.827C280.932 139.109 281.808 139.25 282.808 139.25C283.808 139.25 284.678 139.109 285.416 138.827C286.154 138.552 286.728 138.142 287.138 137.599C287.547 137.062 287.752 136.4 287.752 135.615C287.752 134.803 287.541 134.125 287.118 133.581C286.695 133.037 286.111 132.628 285.366 132.353C284.621 132.077 283.768 131.94 282.808 131.94C281.842 131.94 280.979 132.077 280.22 132.353C279.469 132.635 278.875 133.047 278.438 133.591C278.009 134.142 277.794 134.816 277.794 135.615ZM274.854 148.964C274.854 148.353 275.068 147.83 275.498 147.393C275.928 146.957 276.451 146.742 277.069 146.749C277.673 146.742 278.19 146.957 278.619 147.393C279.049 147.83 279.264 148.353 279.264 148.964C279.264 149.555 279.049 150.068 278.619 150.505C278.19 150.948 277.673 151.172 277.069 151.179C276.659 151.172 276.287 151.065 275.951 150.857C275.616 150.656 275.347 150.387 275.146 150.051C274.951 149.723 274.854 149.36 274.854 148.964Z" fill="white"/>
<g clip-path="url(#clip1_4770_406055)">
<path d="M299.796 515.949C294.023 519.282 287.475 521.037 280.809 521.037C274.143 521.037 267.594 519.282 261.821 515.949M295.619 507.595C291.116 510.195 286.008 511.563 280.809 511.563C275.609 511.563 270.501 510.195 265.998 507.595M291.783 499.62C288.493 501.5 284.76 502.49 280.96 502.49C277.161 502.49 273.428 501.5 270.138 499.62M287.644 491.646C285.594 493 283.225 493.719 280.809 493.719C278.392 493.719 276.023 493 273.973 491.646" stroke="white" stroke-width="4.55696" stroke-linecap="round"/>
</g>
</g>
<rect x="336.632" y="0.886076" width="558.228" height="334.937" rx="34.557" transform="rotate(90 336.632 0.886076)" stroke="url(#paint1_linear_4770_406055)" stroke-width="1.77215"/>
</g>
<defs>
<filter id="filter0_b_4770_406055" x="-20.4563" y="-21.2658" width="379.241" height="602.532" filterUnits="userSpaceOnUse" color-interpolation-filters="sRGB">
<feFlood flood-opacity="0" result="BackgroundImageFix"/>
<feGaussianBlur in="BackgroundImageFix" stdDeviation="10.6329"/>
<feComposite in2="SourceAlpha" operator="in" result="effect1_backgroundBlur_4770_406055"/>
<feBlend mode="normal" in="SourceGraphic" in2="effect1_backgroundBlur_4770_406055" result="shape"/>
</filter>
<filter id="filter1_f_4770_406055" x="-144.507" y="-255.19" width="737.216" height="737.215" filterUnits="userSpaceOnUse" color-interpolation-filters="sRGB">
<feFlood flood-opacity="0" result="BackgroundImageFix"/>
<feBlend mode="normal" in="SourceGraphic" in2="BackgroundImageFix" result="shape"/>
<feGaussianBlur stdDeviation="113.418" result="effect1_foregroundBlur_4770_406055"/>
</filter>
<linearGradient id="paint0_linear_4770_406055" x1="365.496" y1="3.63371e-05" x2="942.425" y2="405.51" gradientUnits="userSpaceOnUse">
<stop stop-color="white" stop-opacity="0.51"/>
<stop offset="1" stop-color="white" stop-opacity="0"/>
</linearGradient>
<linearGradient id="paint1_linear_4770_406055" x1="337.519" y1="14.218" x2="884.727" y2="357.121" gradientUnits="userSpaceOnUse">
<stop stop-color="white"/>
<stop offset="1" stop-color="white" stop-opacity="0.2"/>
</linearGradient>
<clipPath id="clip0_4770_406055">
<rect x="337.519" width="560" height="336.709" rx="35.443" transform="rotate(90 337.519 0)" fill="white"/>
</clipPath>
<clipPath id="clip1_4770_406055">
<rect width="35.443" height="42.5316" fill="white" transform="translate(302.075 489.114) rotate(90)"/>
</clipPath>
</defs>
</svg>
